<svg version="1.1" xmlns="http://www.w3.org/2000/svg" xmlns:xlink="http://www.w3.org/1999/xlink" width="718.99938" height="535.02801" viewBox="0,0,718.99938,535.02801"><g transform="translate(31.40669,149.1429)"><g data-paper-data="{&quot;isPaintingLayer&quot;:true}" fill-rule="nonzero" stroke-linecap="butt" stroke-linejoin="miter" stroke-miterlimit="10" stroke-dasharray="" stroke-dashoffset="0" style="mix-blend-mode: normal"><path d="M-22.71112,-148.14087h704.7269v424.93865l-703.32922,-21.97959z" fill="#99ffff" stroke="#ccffff" stroke-width="2.00406"/><path d="M629.26372,214.41452c17.66068,-0.78346 37.53872,6.22126 48.35939,19.85058c11.52179,14.44658 8.3647,35.99291 7.39117,54.27234c0.47515,18.80948 2.42219,40.3537 -8.86941,55.64498c-10.43211,14.1636 -29.43377,24.50069 -46.88116,24.39087c-25.95569,-0.16261 -55.52883,-8.63712 -74.64241,-22.58954c-19.11358,-13.95454 -30.94579,-33.22438 -30.94579,-54.48985c0,-21.26546 11.83221,-40.53531 30.94579,-54.48985c19.11358,-13.95243 48.70573,-21.45975 74.64241,-22.58954z" fill="#00cc44" stroke="#00cc44" stroke-width="2.88235"/><path d="M94.46592,199.98126c22.59199,0 43.06318,5.64057 57.88595,14.75235c14.82277,9.11317 23.99877,21.69756 23.99877,35.58521c0,13.88765 -9.176,26.47204 -23.99877,35.58521c-14.82277,9.11179 -35.29395,14.75235 -57.88595,14.75235c-22.59199,0 -43.06317,-5.64057 -57.88595,-14.75235c-14.82277,-9.11317 -23.99877,-21.69756 -23.99877,-35.58521c0,-13.88765 9.176,-26.47204 23.99877,-35.58521c14.82277,-9.11179 35.29395,-14.75235 57.88595,-14.75235z" fill="#00cc44" stroke="#00cc44" stroke-width="2.06637"/><path d="M260.73934,188.6984c29.13178,0 55.52883,8.63712 74.64241,22.58954c19.11358,13.95454 30.94579,33.22438 30.94579,54.48985c0,21.26546 -11.83221,40.53531 -30.94579,54.48985c-19.11358,13.95242 -45.51063,22.58954 -74.64241,22.58954c-29.13178,0 -55.52883,-8.63712 -74.64241,-22.58954c-19.11358,-13.95454 -30.94579,-33.22438 -30.94579,-54.48985c0,-21.26546 11.83221,-40.53531 30.94579,-54.48985c19.11358,-13.95243 45.51063,-22.58954 74.64241,-22.58954z" fill="#00cc44" stroke="#00cc44" stroke-width="2.88235"/><path d="M448.29847,200.42085c29.13178,0 55.52883,8.63712 74.64241,22.58954c19.11358,13.95454 30.94579,33.22438 30.94579,54.48985c0,21.26546 -11.83221,40.53531 -30.94579,54.48985c-19.11358,13.95242 -45.51063,22.58954 -74.64241,22.58954c-29.13178,0 -55.52883,-8.63712 -74.64241,-22.58954c-19.11358,-13.95454 -30.94579,-33.22438 -30.94579,-54.48985c0,-21.26546 11.83221,-40.53531 30.94579,-54.48985c19.11358,-13.95243 45.51063,-22.58954 74.64241,-22.58954z" fill="#00cc44" stroke="#00cc44" stroke-width="2.88235"/><path d="M-25.71775,210.85469c8.71158,-4.70829 23.7359,15.12333 33.09929,28.12973c7.0559,9.77928 15.04177,21.95821 15.04177,35.58521c0,13.627 -5.90831,29.66744 -15.04177,35.58521l-30.17387,-5.52058l-1.43705,-51.23398c-0.47115,-17.06098 -8.58225,-40.04525 -1.48837,-42.54558z" fill="#00cc44" stroke="#00cc44" stroke-width="1.65923"/><path d="M-19.85377,260.67941l688.69367,-4.39592l11.72245,87.91834l-703.34673,7.32653z" fill="#00cc44" stroke="#00cc44" stroke-width="2"/><path d="M-30.09263,348.03609h710.63665v36.53496h-710.63665z" fill="#663b00" stroke="#663b00" stroke-width="2.62812"/></g></g></svg>